<?xml version="1.0" encoding="UTF-8"?>
<svg version="1.1" xmlns="http://www.w3.org/2000/svg" width="272" height="70">
<path d="M0 0 C2.16720969 3.25081453 3.61078982 6.60892372 5.125 10.1875 C8.00463903 16.90846737 11.14741193 23.45378536 14.51025391 29.94604492 C17 34.79790525 17 34.79790525 17 37 C15.02 37 13.04 37 11 37 C10.34 35.35 9.68 33.7 9 32 C8.11957031 32.09539063 7.23914063 32.19078125 6.33203125 32.2890625 C5.17058594 32.39992187 4.00914063 32.51078125 2.8125 32.625 C1.66394531 32.74101563 0.51539063 32.85703125 -0.66796875 32.9765625 C-4.03330416 33.00023426 -6.01221706 32.47419799 -9 31 C-9.66 32.98 -10.32 34.96 -11 37 C-18.92 37 -26.84 37 -35 37 C-35 25.45 -35 13.9 -35 2 C-33.68 2 -32.36 2 -31 2 C-30.67 11.9 -30.34 21.8 -30 32 C-25.71 32 -21.42 32 -17 32 C-16.34 32 -15.68 32 -15 32 C-14.60941406 31.08863281 -14.21882813 30.17726563 -13.81640625 29.23828125 C-13.54199707 28.59842285 -13.26758789 27.95856445 -12.98486328 27.29931641 C-12.27106808 25.63285057 -11.55868525 23.96577954 -10.84716797 22.29833984 C-9.54875925 19.2593071 -8.24344561 16.22330079 -6.9375 13.1875 C-6.49083984 12.13884766 -6.04417969 11.09019531 -5.58398438 10.00976562 C-4.93719727 8.51026367 -4.93719727 8.51026367 -4.27734375 6.98046875 C-3.88796631 6.07192139 -3.49858887 5.16337402 -3.09741211 4.22729492 C-2 2 -2 2 0 0 Z M-1 11 C-2.0044134 13.2898234 -3.00367612 15.5816599 -4 17.875 C-4.28617188 18.52597656 -4.57234375 19.17695313 -4.8671875 19.84765625 C-6.45925765 23.29638339 -6.45925765 23.29638339 -7 27 C-3.58794404 29.09972674 -0.9699753 29.33083127 3 29 C4.35208914 28.37224433 5.69001797 27.71145576 7 27 C5.26017005 21.18738629 3.1889511 16.16830006 0 11 C-0.33 11 -0.66 11 -1 11 Z M-8 27 C-7 29 -7 29 -7 29 Z M7 27 C8 29 8 29 8 29 Z " fill="#000000" transform="translate(77,4)"/>
<path d="M0 0 C0.66 0 1.32 0 2 0 C3.46411505 3.03891612 4.92023589 6.08159779 6.375 9.125 C6.7875 9.9809375 7.2 10.836875 7.625 11.71875 C9.70683209 16.08388179 11.61324407 20.35208176 13 25 C13.66 25 14.32 25 15 25 C15.2475 24.34128906 15.495 23.68257812 15.75 23.00390625 C17.32445334 19.22029808 19.15058419 15.59277654 21 11.9375 C21.35578125 11.23044922 21.7115625 10.52339844 22.078125 9.79492188 C22.75699807 8.44604162 23.43663883 7.09754736 24.1171875 5.74951172 C25.08303342 3.8354487 26.04319323 1.9185969 27 0 C27.66 0 28.32 0 29 0 C29.68000722 3.95615901 30.34151743 7.91520618 31 11.875 C31.28617188 13.53789062 31.28617188 13.53789062 31.578125 15.234375 C32.67470108 21.89215834 33.27484065 28.25304388 33 35 C31.68 35 30.36 35 29 35 C27.51068936 29.63848171 26.6613084 24.55422457 26.24609375 19.00390625 C26.20920675 17.00399207 26.20920675 17.00399207 25 16 C24.70754395 16.57032959 24.41508789 17.14065918 24.11376953 17.72827148 C22.79018246 20.30115464 21.4577264 22.8693399 20.125 25.4375 C19.66480469 26.33533203 19.20460937 27.23316406 18.73046875 28.15820312 C18.28574219 29.01220703 17.84101563 29.86621094 17.3828125 30.74609375 C16.97434082 31.53685303 16.56586914 32.3276123 16.14501953 33.14233398 C15 35 15 35 13 36 C12.73783691 35.42967041 12.47567383 34.85934082 12.20556641 34.27172852 C11.01852753 31.69893595 9.82190916 29.1307146 8.625 26.5625 C8.2125 25.66466797 7.8 24.76683594 7.375 23.84179688 C6.97539062 22.98779297 6.57578125 22.13378906 6.1640625 21.25390625 C5.79748535 20.46314697 5.4309082 19.6723877 5.05322266 18.85766602 C4.13452903 16.83497069 4.13452903 16.83497069 2 16 C1.93941406 16.61746094 1.87882813 17.23492188 1.81640625 17.87109375 C1.25103415 23.58570096 0.64425416 29.29374889 0 35 C-1.65 35 -3.3 35 -5 35 C-4.07012366 23.2297232 -2.81998651 11.48137365 0 0 Z " fill="#000000" transform="translate(133,6)"/>
<path d="M0 0 C3.18878243 1.52946125 5.68207843 3.32397257 8 6 C8.495 7.485 8.495 7.485 9 9 C6.8125 9.75 6.8125 9.75 4 10 C3.236875 9.38125 2.47375 8.7625 1.6875 8.125 C-1.80075854 5.36684209 -4.59601959 4.7923467 -9 5 C-12.89316622 6.27276588 -14.66496599 7.62088257 -17.375 10.6875 C-19.3462282 14.70577287 -19.86547617 17.61142387 -19 22 C-17.27876957 25.44246086 -16.00205044 27.40418623 -12.6875 29.375 C-7.5391587 30.57228868 -2.62925109 30.75252768 2 28 C4.31501804 24.98716267 4.31501804 24.98716267 6 22 C1.71 22 -2.58 22 -7 22 C-7 20.35 -7 18.7 -7 17 C-0.73 17 5.54 17 12 17 C11.19131138 22.66082034 10.63842176 25.29672643 8 30 C7.34 30 6.68 30 6 30 C5.67 30.99 5.34 31.98 5 33 C0.51548315 36.18636723 -3.82201743 36.63045314 -9.17578125 36.484375 C-15.00596223 35.48445461 -19.20514397 32.07530228 -23 27.6875 C-25.38088103 21.28888222 -25.64815811 15.37965362 -23 9 C-16.80534383 0.29399673 -10.39783436 -1.57656694 0 0 Z " fill="#000000" transform="translate(27,6)"/>
<path d="M0 0 C18.85026738 0 18.85026738 0 24.515625 5.4609375 C27.86345049 9.25129165 29.79821894 12.25123081 30.375 17.25 C29.81119836 22.88801644 27.60806828 26.96311352 24.125 31.375 C18.8534743 35.40616671 13.33765312 35.25350612 7 35 C7 33.35 7 31.7 7 30 C7.67546875 29.95101562 8.3509375 29.90203125 9.046875 29.8515625 C9.93890625 29.77679688 10.8309375 29.70203125 11.75 29.625 C12.63171875 29.55539063 13.5134375 29.48578125 14.421875 29.4140625 C17.05312751 28.9914674 18.76939454 28.44476852 21 27 C23.61484034 22.49165458 24.61261824 19.02998392 23.609375 13.86328125 C22.42890522 10.25376789 21.22687842 9.04782669 18 7 C13.71 6.67 9.42 6.34 5 6 C5 15.57 5 25.14 5 35 C3.35 35 1.7 35 0 35 C0 23.45 0 11.9 0 0 Z " fill="#000000" transform="translate(214,6)"/>
<path d="M0 0 C18.78824363 0 18.78824363 0 25.375 5.5625 C28.88649147 9.43957141 29.89650625 13.84919583 30 19 C29.05476992 24.07950744 26.70528796 28.39763671 23 32 C17.57892935 35.08256959 13.05310594 35.37059832 7 35 C7 33.35 7 31.7 7 30 C7.66386719 29.97421875 8.32773438 29.9484375 9.01171875 29.921875 C14.49971167 29.56936159 18.10862645 29.25618982 22 25 C24.52013745 21.51981019 24.36793894 18.19450396 24 14 C22.34860695 10.4613006 21.28394771 9.18929847 18 7 C13.71 6.67 9.42 6.34 5 6 C5 15.24 5 24.48 5 34 C2.525 34.495 2.525 34.495 0 35 C0 23.45 0 11.9 0 0 Z " fill="#000000" transform="translate(96,6)"/>
<path d="M0 0 C3.24838923 1.08279641 4.04282583 1.89036845 6.1875 4.4375 C6.71730469 5.05496094 7.24710938 5.67242188 7.79296875 6.30859375 C9 8 9 8 9 10 C9.66 10 10.32 10 11 10 C16 15.47619048 16 15.47619048 16 18 C16.66 18 17.32 18 18 18 C19.32 19.65 20.64 21.3 22 23 C22.33 15.41 22.66 7.82 23 0 C24.32 0 25.64 0 27 0 C27 11.88 27 23.76 27 36 C22.74344765 32.45287304 19.81497545 29.81676243 16.5 25.625 C13.08008502 21.32532428 9.58385991 17.1811699 6 13 C5.67 20.26 5.34 27.52 5 35 C3.35 35 1.7 35 0 35 C0 23.45 0 11.9 0 0 Z " fill="#000000" transform="translate(181,6)"/>
<path d="M0 0 C3.125 2 3.125 2 5 4 C4.34 5.32 3.68 6.64 3 8 C2.34 8 1.68 8 1 8 C1 7.34 1 6.68 1 6 C-2.96 6 -6.92 6 -11 6 C-11 7.98 -11 9.96 -11 12 C-10.26394531 12.17015625 -9.52789062 12.3403125 -8.76953125 12.515625 C1.38774485 15.03817177 1.38774485 15.03817177 5 19 C6.54568288 21.74007419 7.03190927 23.36181463 6.875 26.5 C5.54728846 30.29346154 3.45970014 32.9052249 0.25 35.3125 C-4.89166998 36.88356583 -8.66601711 36.66699144 -13.375 34.3125 C-16.07456145 31.93431491 -17.04872818 30.42457856 -18 27 C-16.68 26.67 -15.36 26.34 -14 26 C-13.34 27.32 -12.68 28.64 -12 30 C-5.91591528 30.19814261 -5.91591528 30.19814261 0 29 C0.33 26.36 0.66 23.72 1 21 C0.26394531 20.82984375 -0.47210938 20.6596875 -1.23046875 20.484375 C-11.09580973 18.03432995 -11.09580973 18.03432995 -15 14 C-16.42662219 11.14675563 -16.31033868 9.16545451 -16 6 C-11.68499244 -0.47251134 -7.43827319 -0.89913192 0 0 Z " fill="#000000" transform="translate(262,6)"/>
<path d="M0 0 C1.32 0 2.64 0 4 0 C4 11.55 4 23.1 4 35 C2.68 35 1.36 35 0 35 C0 23.45 0 11.9 0 0 Z " fill="#000000" transform="translate(171,6)"/>
<path d="M0 0 C1.32 0 2.64 0 4 0 C4 0.66 4 1.32 4 2 C3.01 2 2.02 2 1 2 C1 2.99 1 3.98 1 5 C4.3 5 7.6 5 11 5 C11.66 6.65 12.32 8.3 13 10 C12 11 12 11 8.9375 11.0625 C7.968125 11.041875 6.99875 11.02125 6 11 C6.33 11.66 6.66 12.32 7 13 C8.98 13 10.96 13 13 13 C13 13.66 13 14.32 13 15 C6.57451737 16.33359073 6.57451737 16.33359073 4.0625 14.875 C2.69638375 12.46420662 2.77888739 10.72705554 3 8 C2.34 7.67 1.68 7.34 1 7 C1 9.97 1 12.94 1 16 C0.34 16 -0.32 16 -1 16 C-1.22384382 14.27277272 -1.42839969 12.54303993 -1.625 10.8125 C-1.74101562 9.84957031 -1.85703125 8.88664062 -1.9765625 7.89453125 C-2.00194942 4.75924677 -1.34359283 2.80513465 0 0 Z " fill="#000000" transform="translate(255,47)"/>
<path d="M0 0 C0.99 0 1.98 0 3 0 C3 2 3 2 1.5 3.625 C1.005 4.07875 0.51 4.5325 0 5 C1.1446875 4.87625 1.1446875 4.87625 2.3125 4.75 C5 5 5 5 6.8125 7 C7.204375 7.66 7.59625 8.32 8 9 C8.66 7.68 9.32 6.36 10 5 C10.66 5 11.32 5 12 5 C11.23757784 8.61055091 9.87526626 11.85834625 8.4375 15.25 C7.98246094 16.32765625 7.52742187 17.4053125 7.05859375 18.515625 C6.70925781 19.33546875 6.35992187 20.1553125 6 21 C5.01 21 4.02 21 3 21 C3.144375 20.443125 3.28875 19.88625 3.4375 19.3125 C3.7159375 18.1678125 3.7159375 18.1678125 4 17 C4.226875 16.195625 4.45375 15.39125 4.6875 14.5625 C5.064247 11.47317461 4.34306673 9.76513739 3 7 C2.01 7 1.02 7 0 7 C0 9.97 0 12.94 0 16 C-0.66 16 -1.32 16 -2 16 C-3.43697694 6.11429119 -3.43697694 6.11429119 -1.75 1.8125 C-1.1725 1.214375 -0.595 0.61625 0 0 Z " fill="#000000" transform="translate(223,47)"/>
<path d="M0 0 C4.62 0 9.24 0 14 0 C15.20272819 2.40545638 15.10071472 3.94996953 15.0625 6.625 C15.05347656 7.44226562 15.04445312 8.25953125 15.03515625 9.1015625 C15.02355469 9.72804688 15.01195312 10.35453125 15 11 C14.34 11 13.68 11 13 11 C12.67 8.36 12.34 5.72 12 3 C11.34 3 10.68 3 10 3 C9.67 5.64 9.34 8.28 9 11 C8.01 11 7.02 11 6 11 C5.67 8.36 5.34 5.72 5 3 C4.34 3 3.68 3 3 3 C2.67 5.64 2.34 8.28 2 11 C1.34 11 0.68 11 0 11 C0 7.37 0 3.74 0 0 Z " fill="#000000" transform="translate(185,52)"/>
<path d="M0 0 C0.66 0 1.32 0 2 0 C2 4.62 2 9.24 2 14 C3.98 14 5.96 14 8 14 C8 11.03 8 8.06 8 5 C8.99 5 9.98 5 11 5 C11 8.63 11 12.26 11 16 C7.37 16 3.74 16 0 16 C0 10.72 0 5.44 0 0 Z " fill="#000000" transform="translate(241,47)"/>
<path d="M0 0 C0.78375 0.04125 1.5675 0.0825 2.375 0.125 C2.705 1.115 3.035 2.105 3.375 3.125 C1.725 3.125 0.075 3.125 -1.625 3.125 C-1.955 4.115 -2.285 5.105 -2.625 6.125 C-0.645 6.785 1.335 7.445 3.375 8.125 C4 10.4375 4 10.4375 4.375 13.125 C3.385 14.61 3.385 14.61 2.375 16.125 C-0.75 16.3125 -0.75 16.3125 -3.625 16.125 C-4.285 14.805 -4.945 13.485 -5.625 12.125 C-2.655 12.62 -2.655 12.62 0.375 13.125 C0.375 12.135 0.375 11.145 0.375 10.125 C-2.56736782 7.91331775 -2.56736782 7.91331775 -5.625 6.125 C-4.86443086 2.32215429 -4.27658992 0.20364714 0 0 Z " fill="#000000" transform="translate(175.625,46.875)"/>
<path d="M0 0 C2.31 0 4.62 0 7 0 C9 2 9 2 9.25 5.5 C9 9 9 9 7 11 C4.375 11.125 4.375 11.125 2 11 C2 12.65 2 14.3 2 16 C1.34 16 0.68 16 0 16 C0 10.72 0 5.44 0 0 Z M2 2 C2 4.31 2 6.62 2 9 C3.65 8.67 5.3 8.34 7 8 C7 6.35 7 4.7 7 3 C5.35 2.67 3.7 2.34 2 2 Z " fill="#000000" transform="translate(202,52)"/>
<path d="M0 0 C0.67546875 0.08378906 1.3509375 0.16757812 2.046875 0.25390625 C2.93890625 0.35574219 3.8309375 0.45757813 4.75 0.5625 C6.07257813 0.71912109 6.07257813 0.71912109 7.421875 0.87890625 C9.88432451 0.99456676 11.66538064 0.73638695 14 0 C14.33 1.65 14.66 3.3 15 5 C9.67099269 6.29188056 4.28305817 6.69057861 -1 5 C-0.67 3.35 -0.34 1.7 0 0 Z " fill="#F0593F" transform="translate(70,31)"/>
<path d="M0 0 C0.99 0 1.98 0 3 0 C3 3.63 3 7.26 3 11 C2.01 11 1.02 11 0 11 C0 7.37 0 3.74 0 0 Z " fill="#000000" transform="translate(181,52)"/>
<path d="M0 0 C0.66 0 1.32 0 2 0 C2 5.28 2 10.56 2 16 C1.34 16 0.68 16 0 16 C0 10.72 0 5.44 0 0 Z " fill="#000000" transform="translate(213,47)"/>
<path d="M0 0 C0.66 0 1.32 0 2 0 C2 3.63 2 7.26 2 11 C1.34 11 0.68 11 0 11 C0 7.37 0 3.74 0 0 Z " fill="#000000" transform="translate(217,52)"/>
<path d="M0 0 C0.99 0 1.98 0 3 0 C3 0.99 3 1.98 3 3 C2.01 3 1.02 3 0 3 C0 2.01 0 1.02 0 0 Z " fill="#000000" transform="translate(249,47)"/>
<path d="M0 0 C0.99 0 1.98 0 3 0 C3 0.99 3 1.98 3 3 C2.01 3 1.02 3 0 3 C0 2.01 0 1.02 0 0 Z " fill="#000000" transform="translate(181,47)"/>
<path d="M0 0 C0.66 0 1.32 0 2 0 C2 0.99 2 1.98 2 3 C1.34 3 0.68 3 0 3 C0 2.01 0 1.02 0 0 Z " fill="#000000" transform="translate(217,47)"/>
<path d="" fill="#000000" transform="translate(0,0)"/>
<path d="" fill="#000000" transform="translate(0,0)"/>
<path d="" fill="#000000" transform="translate(0,0)"/>
<path d="" fill="#000000" transform="translate(0,0)"/>
<path d="" fill="#000000" transform="translate(0,0)"/>
<path d="" fill="#000000" transform="translate(0,0)"/>
<path d="" fill="#000000" transform="translate(0,0)"/>
</svg>
