<?xml version="1.0" encoding="UTF-8"?>
<svg version="1.1" xmlns="http://www.w3.org/2000/svg" width="192" height="192">
<path d="M0 0 C63.36 0 126.72 0 192 0 C192 63.36 192 126.72 192 192 C128.64 192 65.28 192 0 192 C0 128.64 0 65.28 0 0 Z " fill="#2B1B47" transform="translate(0,0)"/>
<path d="M0 0 C0 0.66 0 1.32 0 2 C0.69996094 2.21914063 1.39992188 2.43828125 2.12109375 2.6640625 C5.69204852 4.32114056 8.25093823 6.68721768 11.0625 9.375 C11.57876953 9.85710938 12.09503906 10.33921875 12.62695312 10.8359375 C14.09532099 12.21264928 15.54805787 13.60597578 17 15 C17.78117187 15.7321875 18.56234375 16.464375 19.3671875 17.21875 C21 19 21 19 21.0625 21.125 C19.55130378 23.79181686 17.86502226 24.06720205 15 25 C13.65949948 25.65213539 12.32475173 26.31643941 11 27 C10.47792969 26.43152344 9.95585937 25.86304688 9.41796875 25.27734375 C3.31069516 18.87058914 -3.46433637 12.84522121 -12 10 C-12 9.34 -12 8.68 -12 8 C-26.76358045 3.93729482 -45.00021532 4.22080132 -58.609375 11.91796875 C-70.54039911 19.34866465 -76.82209238 28.76697072 -81 42 C-81.30550781 42.94166016 -81.30550781 42.94166016 -81.6171875 43.90234375 C-84.43725692 59.35517314 -80.39473645 73.0907942 -72 86 C-69.58950742 89.06876069 -67.04596719 91.56902809 -64 94 C-63.31292969 94.55042969 -62.62585938 95.10085937 -61.91796875 95.66796875 C-49.81996069 104.4962449 -36.48358279 105.30506832 -22 104 C-13.17423621 102.53871674 -6.63794982 98.06637435 0.3828125 92.828125 C3 91 3 91 5 91 C5.09539062 90.44054687 5.19078125 89.88109375 5.2890625 89.3046875 C6.17218818 86.44180754 7.5975288 84.53246099 9.375 82.125 C11.97881955 78.51066321 14.18344604 75.06053238 16 71 C16.66 71 17.32 71 18 71 C18 69.68 18 68.36 18 67 C1.5 67 -15 67 -32 67 C-32 63.04 -32 59.08 -32 55 C-11.21 55 9.58 55 31 55 C31 72.85015218 25.52234725 84.73670168 14 98 C13.27941406 98.69480469 12.55882812 99.38960938 11.81640625 100.10546875 C9.7735778 101.96545219 9.7735778 101.96545219 9 105 C-6.2322659 116.01780498 -25.77102276 118.50142977 -44 117 C-52.28966469 115.62255383 -60.29151491 113.17630022 -67 108 C-67 107.34 -67 106.68 -67 106 C-67.88751953 105.82984375 -67.88751953 105.82984375 -68.79296875 105.65625 C-75.79339233 103.57470812 -81.16405342 95.82970604 -85 90 C-85 89.34 -85 88.68 -85 88 C-85.66 88 -86.32 88 -87 88 C-87.71382706 86.09646117 -88.42753522 84.19287765 -89.140625 82.2890625 C-89.69040318 80.82465335 -90.24228552 79.36103133 -90.796875 77.8984375 C-91.04953125 77.23070313 -91.3021875 76.56296875 -91.5625 75.875 C-91.79066406 75.27429688 -92.01882812 74.67359375 -92.25390625 74.0546875 C-92.50011719 73.37664062 -92.74632812 72.69859375 -93 72 C-93.35191406 71.14664063 -93.70382813 70.29328125 -94.06640625 69.4140625 C-98.15716431 54.45455393 -95.22794352 37.39189816 -87.85742188 24.05664062 C-86.29586286 21.33286309 -84.66618132 18.66103716 -83 16 C-82.34 16 -81.68 16 -81 16 C-80.76410156 15.43152344 -80.52820313 14.86304687 -80.28515625 14.27734375 C-74.35276838 3.76493607 -61.96206516 -1.56413731 -51.08984375 -5.203125 C-34.42175427 -9.50184846 -15.46511173 -7.73255586 0 0 Z " fill="#F4F2F5" transform="translate(129,22)"/>
<path d="M0 0 C4.66859837 -0.42441803 7.78185654 1.11690024 12 3 C21.95289407 5.48822352 31.54248466 4.37214849 41.0625 0.875 C44.18630095 -0.0554939 46.7591588 -0.15432577 50 0 C53 6.5 53 6.5 53 11 C50.93847611 11.64894237 48.87573742 12.2940264 46.8125 12.9375 C45.66394531 13.29714844 44.51539063 13.65679687 43.33203125 14.02734375 C28.64182504 18.31557511 10.79027586 17.89513793 -3 11 C-2.32829194 7.1936543 -1.27253436 3.64793184 0 0 Z " fill="#F05C44" transform="translate(73,161)"/>
<path d="M0 0 C3 6.5 3 6.5 3 11 C1.75336669 11.50833591 0.50250613 12.00631145 -0.75 12.5 C-1.44609375 12.7784375 -2.1421875 13.056875 -2.859375 13.34375 C-5 14 -5 14 -9 14 C-9 12.68 -9 11.36 -9 10 C-8.01 9.67 -7.02 9.34 -6 9 C-4.79117904 6.99983534 -4.79117904 6.99983534 -4 5 C-3.01 5 -2.02 5 -1 5 C-1 3.68 -1 2.36 -1 1 C-2.97536745 1.34786708 -2.97536745 1.34786708 -5 2 C-5.33 2.66 -5.66 3.32 -6 4 C-6.99 4 -7.98 4 -9 4 C-9 4.66 -9 5.32 -9 6 C-17.91 6 -26.82 6 -36 6 C-36.33 5.34 -36.66 4.68 -37 4 C-35.27716797 4.06960937 -35.27716797 4.06960937 -33.51953125 4.140625 C-24.65475735 4.38569866 -17.21362968 4.08138273 -8.796875 0.875 C-5.72837777 -0.08497679 -3.19597855 -0.15128893 0 0 Z " fill="#DB594E" transform="translate(123,161)"/>
<path d="M0 0 C1.65 0 3.3 0 5 0 C3.68 0.33 2.36 0.66 1 1 C1.061875 1.928125 1.12375 2.85625 1.1875 3.8125 C1 7 1 7 -0.51171875 8.69921875 C-1.00285156 9.12847656 -1.49398437 9.55773437 -2 10 C-0.700625 10.12375 0.59875 10.2475 1.9375 10.375 C5.06181571 10.67255388 7.99413144 11.2413244 11.03125 12 C16.83569356 13.3235986 22.63014723 13.45335869 28.5625 13.625 C29.66658203 13.66367188 30.77066406 13.70234375 31.90820312 13.7421875 C34.60531125 13.83559384 37.3024277 13.92136476 40 14 C40 14.33 40 14.66 40 15 C26.06839147 18.09504765 9.85278012 17.42639006 -3 11 C-2.32829194 7.1936543 -1.27253436 3.64793184 0 0 Z " fill="#C55654" transform="translate(73,161)"/>
<path d="M0 0 C0 0.99 0 1.98 0 3 C-2.475 2.505 -2.475 2.505 -5 2 C-5.33 2.66 -5.66 3.32 -6 4 C-6.99 4 -7.98 4 -9 4 C-9 4.66 -9 5.32 -9 6 C-17.91 6 -26.82 6 -36 6 C-36.33 5.34 -36.66 4.68 -37 4 C-35.27716797 4.06960937 -35.27716797 4.06960937 -33.51953125 4.140625 C-24.65475735 4.38569866 -17.21362968 4.08138273 -8.796875 0.875 C-5.72837777 -0.08497679 -3.19597855 -0.15128893 0 0 Z " fill="#BD504F" transform="translate(123,161)"/>
<path d="M0 0 C0.66 0.33 1.32 0.66 2 1 C-1.05898126 5.45737269 -4.1182641 9.2153075 -8 13 C-8.90562718 14.09614817 -9.8014875 15.20043739 -10.6875 16.3125 C-11.450625 17.199375 -12.21375 18.08625 -13 19 C-13.66 19 -14.32 19 -15 19 C-12.1522881 11.07107667 -6.64534077 5.02452595 0 0 Z " fill="#564C68" transform="translate(66,36)"/>
<path d="M0 0 C-0.95712891 0.19916016 -0.95712891 0.19916016 -1.93359375 0.40234375 C-3.17302734 0.66724609 -3.17302734 0.66724609 -4.4375 0.9375 C-5.26121094 1.11152344 -6.08492187 1.28554687 -6.93359375 1.46484375 C-8.97661204 1.80752994 -8.97661204 1.80752994 -10 3 C-12.30993382 3.12557162 -14.62418536 3.17575729 -16.9375 3.1875 C-18.20464844 3.20167969 -19.47179687 3.21585938 -20.77734375 3.23046875 C-24 3 -24 3 -26 1 C-23.63332666 -1.36667334 -17.88169302 -0.48144076 -14.6875 -0.625 C-13.72392578 -0.6765625 -12.76035156 -0.728125 -11.76757812 -0.78125 C-10.83751953 -0.82507813 -9.90746094 -0.86890625 -8.94921875 -0.9140625 C-8.09674561 -0.9548291 -7.24427246 -0.9955957 -6.3659668 -1.03759766 C-4.07136922 -1.00113413 -2.19094648 -0.65491108 0 0 Z " fill="#4E1E39" transform="translate(112,177)"/>
<path d="M0 0 C0.75466553 0.00128906 1.50933105 0.00257812 2.28686523 0.00390625 C8.17918566 0.10487779 13.39817025 1.05179386 18.875 3.3125 C18.875 3.6425 18.875 3.9725 18.875 4.3125 C8.53966962 3.6741813 -1.79349591 3.01017341 -12.125 2.3125 C-8.3192608 -0.18812968 -4.39518615 -0.03073893 0 0 Z " fill="#594F6A" transform="translate(98.125,26.6875)"/>
<path d="M0 0 C1.258125 0.12375 2.51625 0.2475 3.8125 0.375 C4.87404297 0.47941406 4.87404297 0.47941406 5.95703125 0.5859375 C8 1 8 1 11 3 C9.35 3.33 7.7 3.66 6 4 C6 4.66 6 5.32 6 6 C6.66 6.33 7.32 6.66 8 7 C6.68 7.33 5.36 7.66 4 8 C4 7.01 4 6.02 4 5 C2.68 5 1.36 5 0 5 C0 3.35 0 1.7 0 0 Z " fill="#E65A4B" transform="translate(74,162)"/>
<path d="M0 0 C0.66 0.33 1.32 0.66 2 1 C-2.21028351 6.2724523 -5.91410189 10.01915194 -12 13 C-10.44997253 9.11602311 -7.99523379 6.97020381 -4.875 4.25 C-3.96492188 3.45078125 -3.05484375 2.6515625 -2.1171875 1.828125 C-1.06917969 0.92320313 -1.06917969 0.92320313 0 0 Z " fill="#B7B2C3" transform="translate(60,25)"/>
<path d="M0 0 C5.35025597 -0.18449159 8.9087533 0.30291777 14 2 C17.65832282 2.46173006 21.32157751 2.75128104 25 3 C25 3.33 25 3.66 25 4 C16.11487651 4.35021655 8.44237574 3.89452883 0 1 C0 0.67 0 0.34 0 0 Z " fill="#6B2A3C" transform="translate(79,162)"/>
<path d="M0 0 C1.65 0 3.3 0 5 0 C3.68 0.33 2.36 0.66 1 1 C1.061875 1.928125 1.12375 2.85625 1.1875 3.8125 C1 7 1 7 -0.5 8.875 C-1.2425 9.431875 -1.2425 9.431875 -2 10 C-1.278125 10.12375 -0.55625 10.2475 0.1875 10.375 C2.95721894 10.9904931 5.3970354 11.88444374 8 13 C5.83032311 13.95465783 4.43671207 14.14401212 2.17578125 13.3984375 C0.4315257 12.64129615 -1.28627131 11.82390802 -3 11 C-2.32829194 7.1936543 -1.27253436 3.64793184 0 0 Z " fill="#B04B4D" transform="translate(73,161)"/>
<path d="M0 0 C-0.33 0.66 -0.66 1.32 -1 2 C-3.60444348 2.05394705 -6.20776998 2.09364469 -8.8125 2.125 C-9.55048828 2.14175781 -10.28847656 2.15851563 -11.04882812 2.17578125 C-14.91246426 2.21074628 -16.70903668 2.19397555 -20 0 C-13.16920852 -1.18225237 -6.87368733 -0.74464946 0 0 Z " fill="#3E1940" transform="translate(110,163)"/>
<path d="M0 0 C-1.98 0.33 -3.96 0.66 -6 1 C-6 1.66 -6 2.32 -6 3 C-8.5 4.625 -8.5 4.625 -11 6 C-11.66 5.34 -12.32 4.68 -13 4 C-11.59248779 3.13083113 -10.1735479 2.28014851 -8.75 1.4375 C-7.96109375 0.96183594 -7.1721875 0.48617188 -6.359375 -0.00390625 C-3.69155375 -1.13022151 -2.65498232 -1.0169313 0 0 Z " fill="#6E6580" transform="translate(81,31)"/>
<path d="M0 0 C0.33 1.32 0.66 2.64 1 4 C-1.25 6.75 -1.25 6.75 -4 9 C-4.99 9 -5.98 9 -7 9 C-4.69 6.03 -2.38 3.06 0 0 Z " fill="#C0BBC8" transform="translate(141,101)"/>
<path d="M0 0 C0 3.28176588 -0.47835901 5.10888212 -2 8 C-3.32 8.33 -4.64 8.66 -6 9 C-4.02 6.03 -2.04 3.06 0 0 Z " fill="#685D76" transform="translate(150,110)"/>
<path d="M0 0 C2.3129482 2.3129482 2.49580975 3.47904875 3.125 6.625 C3.29257812 7.44226563 3.46015625 8.25953125 3.6328125 9.1015625 C3.81457031 10.04128906 3.81457031 10.04128906 4 11 C2 9.4375 2 9.4375 0 7 C-0.25 3.25 -0.25 3.25 0 0 Z " fill="#665D76" transform="translate(34,88)"/>
<path d="M0 0 C1.32 0.99 2.64 1.98 4 3 C3.67 4.32 3.34 5.64 3 7 C2.01 7 1.02 7 0 7 C0 4.69 0 2.38 0 0 Z " fill="#BBB3C6" transform="translate(146,38)"/>
<path d="M0 0 C0.66 0.33 1.32 0.66 2 1 C-0.31 3.64 -2.62 6.28 -5 9 C-5.66 8.67 -6.32 8.34 -7 8 C-4.69 5.36 -2.38 2.72 0 0 Z " fill="#D6D2DC" transform="translate(60,25)"/>
<path d="M0 0 C0.66 0 1.32 0 2 0 C2 1.32 2 2.64 2 4 C3.32 4.66 4.64 5.32 6 6 C4.02 6 2.04 6 0 6 C0 4.02 0 2.04 0 0 Z " fill="#451C3C" transform="translate(68,168)"/>
<path d="M0 0 C0.33 0.66 0.66 1.32 1 2 C-0.4375 4.625 -0.4375 4.625 -2 7 C-2.99 6.34 -3.98 5.68 -5 5 C-3.35 3.35 -1.7 1.7 0 0 Z " fill="#594E6B" transform="translate(143,119)"/>
</svg>
